<?xml version="1.0" encoding="UTF-8" standalone="no"?>
<!-- Created with Inkscape (http://www.inkscape.org/) -->

<svg
   width="210mm"
   height="297mm"
   viewBox="0 0 210 297"
   version="1.1"
   id="svg1"
   inkscape:version="1.3.2 (091e20ef0f, 2023-11-25, custom)"
   sodipodi:docname="magic_level_03.svg"
   xmlns:inkscape="http://www.inkscape.org/namespaces/inkscape"
   xmlns:sodipodi="http://sodipodi.sourceforge.net/DTD/sodipodi-0.dtd"
   xmlns="http://www.w3.org/2000/svg"
   xmlns:svg="http://www.w3.org/2000/svg">
  <sodipodi:namedview
     id="namedview1"
     pagecolor="#ffffff"
     bordercolor="#000000"
     borderopacity="0.25"
     inkscape:showpageshadow="2"
     inkscape:pageopacity="0.0"
     inkscape:pagecheckerboard="0"
     inkscape:deskcolor="#d1d1d1"
     inkscape:document-units="mm"
     inkscape:zoom="0.40622896"
     inkscape:cx="1335.4538"
     inkscape:cy="-108.3133"
     inkscape:window-width="3840"
     inkscape:window-height="2125"
     inkscape:window-x="2560"
     inkscape:window-y="0"
     inkscape:window-maximized="1"
     inkscape:current-layer="layer1" />
  <defs
     id="defs1" />
  <g
     inkscape:label="Layer 1"
     inkscape:groupmode="layer"
     id="layer1">
    <circle
       id="path2"
       style="fill:#000000;stroke:#000000;stroke-width:0.264583"
       cx="40.79475"
       cy="146.43686"
       r="0.015336196" />
    <path
       style="fill:none;stroke:#000000;stroke-width:1.165;stroke-dasharray:none;stroke-opacity:1"
       d="m 7.4797178,113.03964 c 0,0 -39.1207618,107.77635 0.175995,146.87752 39.2967562,39.10117 141.4233772,42.53385 185.7363072,-0.70419 20.60121,-20.1015 19.53076,-63.14997 2.44723,-86.31531 C 162.39911,127.55267 79.411636,95.596279 33.009369,127.55313 0.90311324,149.66444 -3.9906021,215.07602 22.14774,243.99848 c 33.984858,37.60475 115.28789,36.11266 152.05359,1.22182 13.90654,-13.19738 14.13282,-42.18492 2.54607,-57.45941 -25.14037,-33.14183 -88.346624,-53.33979 -121.548634,-28.27896 -17.374498,13.11425 -18.046251,49.30273 -3.203665,65.22612 22.601954,24.24778 77.228089,26.72498 99.422339,2.10348 6.01405,-6.67177 2.78558,-20.18007 -3.35304,-26.73741 -17.6453,-18.84892 -55.534308,-30.35246 -76.053935,-14.68137 -7.647491,5.84048 -8.641505,21.65285 -2.182188,28.78535 14.065999,15.53195 58.608873,21.98695 62.846613,1.46537 2.89439,-14.01635 -39.809882,-16.08392 -39.809882,-16.08392"
       id="path5"
       sodipodi:nodetypes="czasaaaaaaaaaaac" />
    <path
       style="fill:none;stroke:#000000;stroke-width:1.165;stroke-dasharray:none;stroke-opacity:1"
       d="m -164.58251,42.684883 c 0,0 -111.59301,26.328202 -145.86149,-17.247121 -34.26847,-43.575312 -25.80719,-145.408692 22.28849,-184.395482 22.35983,-18.12507 64.99208,-12.05813 86.01469,7.60222 41.15072,38.48415 63.24445,124.623566 26.11064,166.996804 -25.6933,29.318516 -91.23033,26.575948 -116.91855,-2.747022 -33.39963,-38.125492 -22.46739,-118.703992 16.46041,-151.164952 14.72435,-12.27828 43.54171,-9.13366 57.36588,4.14999 29.99499,28.8222 42.70927,93.947733 13.95907,124.011745 -15.04489,15.7323956 -51.06615,12.1932232 -65.15638,-4.399606 -21.45629,-25.2672 -17.56722,-79.810997 9.46714,-98.992929 7.32559,-5.19779 20.36706,-0.42107 26.16643,6.43814 16.67016,19.716598 23.69169,58.685901 5.74173,77.244904 -6.6898,6.916784 -22.51053,6.066115 -28.84388,-1.178468 -13.79171,-15.776014 -15.02552,-60.767257 5.84954,-62.590946 14.25777,-1.245581 11.34759,41.409553 11.34759,41.409553"
       id="path5-5"
       sodipodi:nodetypes="czasaaaaaaaaaaac" />
    <path
       style="fill:none;stroke:#000000;stroke-width:1.165"
       d="m -164.52507,42.876312 c -32.98735,11.817945 17.30979,77.027188 83.064927,2.902119 -0.716737,26.834784 18.299928,30.841588 46.107608,24.678775 -7.71291,32.894254 9.918316,119.978064 42.6976187,42.860744"
       id="path6"
       sodipodi:nodetypes="cccc" />
    <g
       id="g6"
       transform="translate(-68.491942,-250.19132)"
       style="stroke-width:1.165;stroke-dasharray:none">
      <circle
         id="path2-2"
         style="fill:#000000;stroke:#000000;stroke-width:1.165;stroke-dasharray:none"
         cx="440.10883"
         cy="450.41702"
         r="0.015336196" />
      <g
         id="g7"
         transform="rotate(-139.87777,334.46422,283.05305)"
         style="stroke-width:1.165;stroke-dasharray:none">
        <path
           style="fill:none;stroke:#000000;stroke-width:1.165;stroke-dasharray:none;stroke-opacity:1"
           d="m 406.79381,417.0198 c 0,0 -39.12076,107.77635 0.17599,146.87752 39.29676,39.10117 141.42338,42.53385 185.73631,-0.70419 20.60121,-20.1015 19.53076,-63.14997 2.44723,-86.31531 -33.44014,-45.34499 -116.42761,-77.30138 -162.82988,-45.34453 -32.10626,22.11131 -36.99997,87.52289 -10.86163,116.44535 33.98486,37.60475 115.28789,36.11266 152.05359,1.22182 13.90654,-13.19738 14.13282,-42.18492 2.54607,-57.45941 -25.14037,-33.14183 -88.34662,-53.33979 -121.54863,-28.27896 -17.3745,13.11425 -18.04625,49.30273 -3.20367,65.22612 22.60196,24.24778 77.22809,26.72498 99.42234,2.10348 6.01405,-6.67177 2.78558,-20.18007 -3.35304,-26.73741 -17.6453,-18.84892 -55.53431,-30.35246 -76.05393,-14.68137 -7.6475,5.84048 -8.64151,21.65285 -2.18219,28.78535 14.066,15.53195 58.60887,21.98695 62.84661,1.46537 2.89439,-14.01635 -39.80988,-16.08392 -39.80988,-16.08392"
           id="path5-9"
           sodipodi:nodetypes="czasaaaaaaaaaaac" />
        <path
           style="fill:none;stroke:#000000;stroke-width:1.165;stroke-dasharray:none;stroke-opacity:1"
           d="m 234.73158,346.66504 c 0,0 -111.59301,26.3282 -145.86149,-17.24712 -34.26847,-43.57531 -25.80719,-145.40869 22.28849,-184.39548 22.35983,-18.12507 64.99208,-12.05813 86.01469,7.60222 41.15072,38.48415 63.24445,124.62357 26.11064,166.9968 -25.6933,29.31852 -91.23033,26.57595 -116.91855,-2.74702 -33.39963,-38.12549 -22.46739,-118.70399 16.46041,-151.16495 14.72435,-12.27828 43.54171,-9.13366 57.36588,4.14999 29.99499,28.8222 42.70927,93.94773 13.95907,124.01175 -15.04489,15.73239 -51.06615,12.19322 -65.15638,-4.39961 -21.45629,-25.2672 -17.56722,-79.811 9.46714,-98.99293 7.32559,-5.19779 20.36706,-0.42107 26.16643,6.43814 16.67016,19.7166 23.69169,58.6859 5.74173,77.2449 -6.6898,6.91679 -22.51053,6.06612 -28.84388,-1.17846 -13.79171,-15.77602 -15.02552,-60.76726 5.84954,-62.59095 14.25777,-1.24558 11.34759,41.40955 11.34759,41.40955"
           id="path5-5-1"
           sodipodi:nodetypes="czasaaaaaaaaaaac" />
        <path
           style="fill:none;stroke:#000000;stroke-width:1.165;stroke-dasharray:none"
           d="m 234.78902,346.85647 c -32.98735,11.81795 17.30979,77.02719 83.06493,2.90212 -0.71674,26.83479 18.29993,30.84159 46.10761,24.67878 -7.71292,32.89425 9.91831,119.97806 42.69761,42.86074"
           id="path6-2"
           sodipodi:nodetypes="cccc" />
      </g>
      <path
         style="fill:none;stroke:#000000;stroke-width:1.165;stroke-dasharray:none"
         d="m 277.0116,468.41141 c -2.93054,130.14083 90.09817,102.65858 77.84224,0.29424"
         id="path7"
         sodipodi:nodetypes="cc" />
      <path
         style="fill:none;stroke:#000000;stroke-width:1.165;stroke-dasharray:none"
         d="m 59.083557,186.51114 c 0,0 -0.07444,43.49246 8.62199,62.72091 8.684072,19.20108 22.304484,38.79875 41.346783,47.82568 15.72651,7.45511 34.94887,3.78815 52.19263,1.43118 18.59257,-2.54135 44.23679,-0.44073 53.79692,-16.58838 19.35385,-32.68981 5.25366,-86.16622 -22.93177,-111.63729 -19.2119,-17.36173 -54.61937,-20.39595 -77.28372,-7.87182 -17.124069,9.46262 -28.426899,33.83035 -26.037529,52.60248 2.40368,18.88445 15.812549,36.01955 27.309189,48.38209 16.13283,17.34792 62.20219,19.94311 75.77151,3.48259 12.18376,-14.77974 3.91267,-45.98835 -6.58036,-65.1144 -5.94367,-10.83375 -16.81556,-24.25563 -29.1046,-22.96079 -15.72967,1.65736 -30.70777,20.69629 -30.30988,36.50802 0.30832,12.25162 13.03802,30.23333 24.87847,27.07094 29.22402,-7.80526 4.09946,-26.10085 4.09946,-26.10085"
         id="path8"
         sodipodi:nodetypes="caaaaaasssaaasc"
         inkscape:transform-center-x="-28.2965"
         inkscape:transform-center-y="-47.225798" />
      <g
         id="g10"
         transform="translate(49.478115,-19.05616)"
         style="stroke-width:1.165;stroke-dasharray:none">
        <path
           style="fill:none;stroke:#000000;stroke-width:1.165;stroke-dasharray:none"
           d="m 9.4967015,205.87686 c 0,0 7.7690625,-80.85083 -5.3561032,-117.957692 C -7.2566964,55.69726 -30.607831,27.485566 -56.646038,5.3459752 -91.443813,-24.241642 -178.62396,-57.089568 -178.62396,-57.089568"
           id="path9"
           sodipodi:nodetypes="caac" />
        <path
           style="fill:none;stroke:#000000;stroke-width:1.165;stroke-dasharray:none"
           d="m 3.9135699,88.300988 c 0,0 22.0795291,-55.408519 44.3037831,-73.354083 26.074876,-21.0548515 95.081687,-32.685259 95.081687,-32.685259"
           id="path10"
           sodipodi:nodetypes="cac" />
      </g>
    </g>
  </g>
</svg>
