<?xml version="1.0" encoding="UTF-8" standalone="no"?>
<!-- Created with Inkscape (http://www.inkscape.org/) -->

<svg
   width="210mm"
   height="297mm"
   viewBox="0 0 210 297"
   version="1.1"
   id="svg1"
   inkscape:version="1.3.2 (091e20ef0f, 2023-11-25, custom)"
   sodipodi:docname="magic_level_03.svg"
   xmlns:inkscape="http://www.inkscape.org/namespaces/inkscape"
   xmlns:sodipodi="http://sodipodi.sourceforge.net/DTD/sodipodi-0.dtd"
   xmlns="http://www.w3.org/2000/svg"
   xmlns:svg="http://www.w3.org/2000/svg">
  <sodipodi:namedview
     id="namedview1"
     pagecolor="#ffffff"
     bordercolor="#000000"
     borderopacity="0.25"
     inkscape:showpageshadow="2"
     inkscape:pageopacity="0.0"
     inkscape:pagecheckerboard="0"
     inkscape:deskcolor="#d1d1d1"
     inkscape:document-units="mm"
     inkscape:zoom="1.148989"
     inkscape:cx="425.15638"
     inkscape:cy="637.95215"
     inkscape:window-width="3840"
     inkscape:window-height="2125"
     inkscape:window-x="2560"
     inkscape:window-y="0"
     inkscape:window-maximized="1"
     inkscape:current-layer="layer1" />
  <defs
     id="defs1" />
  <g
     inkscape:label="Layer 1"
     inkscape:groupmode="layer"
     id="layer1">
    <path
       style="fill:none;fill-opacity:1;stroke:#000000;stroke-width:1.765;stroke-linecap:butt;stroke-linejoin:round;stroke-dasharray:none;stroke-opacity:1"
       d="m 27.728352,79.044273 c 1.591638,2.778668 12.042777,7.600046 12.042777,7.600046 5.24104,1.375546 7.819423,0.391469 11.21124,0.12825 8.805343,-2.326906 9.257027,-4.777889 10.222857,-9.272103 l 1.684644,-9.794248 1.77437,-7.036083 10.603396,0.975122 c 0,0 4.330636,8.551773 4.507257,9.173622 0.172829,0.608496 -2.383926,14.888949 -0.06026,19.016932 1.398274,2.484027 1.800858,2.651304 3.923211,3.671182 4.388968,2.109079 4.899926,1.955214 5.323766,1.740945 8.320388,-4.206318 9.707913,-4.158963 11.84006,-0.227907 6.86079,14.098899 10.08451,3.849406 13.64845,-3.31511 l 3.17233,-6.729106"
       id="path1"
       sodipodi:nodetypes="cccccccssssccc" />
    <path
       style="fill:#000000;stroke:#000000;stroke-width:0.264583;stroke-opacity:1"
       d="m 113.94677,106.28246 39.27212,0.12491"
       id="path3"
       sodipodi:nodetypes="cc" />
    <path
       style="fill:none;stroke:#000000;stroke-width:0.264583;stroke-opacity:1"
       d="m 179.87131,94.785103 c 31.87419,19.337967 16.82533,-15.29973 16.82533,-15.29973 l -13.83698,-19.554396 -9.46599,2.263024 -4.82251,1.152915 -3.56719,-18.539407"
       id="path4"
       sodipodi:nodetypes="cccccc" />
    <circle
       id="path2"
       style="fill:#000000;stroke:#000000;stroke-width:0.264583"
       cx="40.79475"
       cy="146.43686"
       r="0.015336196" />
    <path
       style="fill:none;stroke:#000000;stroke-width:1.165;stroke-dasharray:none;stroke-opacity:1"
       d="m 7.4797178,113.03964 c 0,0 -39.1207618,107.77635 0.175995,146.87752 39.2967562,39.10117 141.4233772,42.53385 185.7363072,-0.70419 20.60121,-20.1015 19.53076,-63.14997 2.44723,-86.31531 C 162.39911,127.55267 79.411636,95.596279 33.009369,127.55313 0.90311324,149.66444 -3.9906021,215.07602 22.14774,243.99848 c 33.984858,37.60475 115.28789,36.11266 152.05359,1.22182 13.90654,-13.19738 14.13282,-42.18492 2.54607,-57.45941 -25.14037,-33.14183 -88.346624,-53.33979 -121.548634,-28.27896 -17.374498,13.11425 -18.046251,49.30273 -3.203665,65.22612 22.601954,24.24778 77.228089,26.72498 99.422339,2.10348 6.01405,-6.67177 2.78558,-20.18007 -3.35304,-26.73741 -17.6453,-18.84892 -55.534308,-30.35246 -76.053935,-14.68137 -7.647491,5.84048 -8.641505,21.65285 -2.182188,28.78535 14.065999,15.53195 58.608873,21.98695 62.846613,1.46537 2.89439,-14.01635 -39.809882,-16.08392 -39.809882,-16.08392"
       id="path5"
       sodipodi:nodetypes="czasaaaaaaaaaaac" />
  </g>
</svg>
