<?xml version="1.0" encoding="UTF-8" standalone="no"?>
<!-- Created with Inkscape (http://www.inkscape.org/) -->

<svg
   width="210mm"
   height="297mm"
   viewBox="0 0 210 297"
   version="1.1"
   id="svg1"
   inkscape:version="1.3.2 (091e20ef0f, 2023-11-25, custom)"
   sodipodi:docname="magic_level_05.svg"
   xmlns:inkscape="http://www.inkscape.org/namespaces/inkscape"
   xmlns:sodipodi="http://sodipodi.sourceforge.net/DTD/sodipodi-0.dtd"
   xmlns="http://www.w3.org/2000/svg"
   xmlns:svg="http://www.w3.org/2000/svg">
  <sodipodi:namedview
     id="namedview1"
     pagecolor="#ffffff"
     bordercolor="#000000"
     borderopacity="0.25"
     inkscape:showpageshadow="2"
     inkscape:pageopacity="0.0"
     inkscape:pagecheckerboard="0"
     inkscape:deskcolor="#d1d1d1"
     inkscape:document-units="mm"
     inkscape:zoom="1.6249158"
     inkscape:cx="90.158516"
     inkscape:cy="419.71405"
     inkscape:window-width="3840"
     inkscape:window-height="2125"
     inkscape:window-x="2560"
     inkscape:window-y="0"
     inkscape:window-maximized="1"
     inkscape:current-layer="layer1" />
  <defs
     id="defs1" />
  <g
     inkscape:label="Layer 1"
     inkscape:groupmode="layer"
     id="layer1">
    <path
       style="fill:none;stroke:#000000;stroke-width:1.165"
       d="M 2.1023491,9.6758464 C 12.203946,16.491127 12.007149,26.767489 12.007149,26.767489 L 11.657127,38.988498 10.19528,80.481279 c -0.6112898,12.382513 -1.2868128,12.761217 2.714628,19.231547 4.383388,5.733574 2.130644,9.641564 5.260998,11.885414 3.475735,2.66837 6.400155,-2.71761 14.996685,7.54983 5.118164,6.11298 31.42808,2.00085 35.490151,-2.4957 1.752812,-1.94029 -0.766264,-6.43817 2.109015,-11.10999 2.561341,-4.16173 1.998773,-5.601797 2.229469,-7.891025 0.230696,-2.289222 0.257622,-2.285779 -0.417094,-5.589431 -0.674716,-3.303652 -11.642069,-4.750202 -17.134089,-2.907242 -2.145687,0.720029 -2.779445,3.675614 -4.653959,4.943925 -2.206763,1.493114 -4.850052,3.544873 -7.440433,2.921079 C 41.11952,96.482404 40.016447,93.801877 38.78996,91.8622 37.279433,89.473315 37.903011,88.727384 35.459776,84.064375"
       id="path1"
       sodipodi:nodetypes="ccccccssszzaaaac" />
    <path
       style="fill:none;stroke:#000000;stroke-width:1.165"
       d="m 35.467689,7.5367138 c -0.38336,0.057569 -8.23078,7.5506252 -8.23078,7.5506252 l -0.659187,8.129172 c 0,0 -1.143007,7.841562 1.631573,8.421009 2.681258,0.73531 5.396521,1.266706 8.094786,1.900033 l 16.355561,3.293195 c 0,0 8.340741,3.275524 10.981065,6.641148 1.932762,2.463694 2.808108,8.964527 2.808108,8.964527 0,0 0.532232,6.471154 2.598856,8.668661 1.652248,1.756888 4.454879,1.895926 6.790045,2.498899 2.715131,0.701085 6.556488,-0.904588 8.314605,1.280012 1.008129,1.25268 0.521586,3.433663 -0.302517,4.814382 -0.580014,0.971768 -2.881331,1.79574 -2.881331,1.79574 0,0 -4.277765,0.751678 -6.438738,0.755678 -2.164854,0.004 -4.347217,-0.231111 -6.453058,-0.733149 -1.771752,-0.422391 -3.60563,-0.892409 -5.123616,-1.899007 C 60.941417,68.283689 59.076064,66.49925 57.992536,64.342377 56.581777,61.534118 57.728652,57.878842 56.33794,55.060601 54.070288,50.465262 50.511356,46.081105 45.967377,43.712214 39.72904,40.460012 25.041962,40.960852 25.041962,40.960852"
       id="path2"
       sodipodi:nodetypes="ccccccacaaaacaaaaaac" />
    <path
       style="fill:none;stroke:#000000;stroke-width:1.165"
       d="m 18.260338,49.250508 -1.399135,18.103424 c -0.834039,11.400333 1.888939,16.202169 0.469303,22.666781 -0.206519,7.147118 4.966937,7.639556 7.820119,11.181647 2.559612,3.17764 4.709178,7.06597 8.30691,8.99089 4.011038,2.14605 8.935117,1.90465 13.477955,2.14252 3.152519,0.16507 6.714703,1.06156 9.457208,-0.50186 2.693262,-1.53535 4.643454,-4.68314 5.155607,-7.7407 0.233053,-1.39133 0.09248,-3.29562 -1.070165,-4.094598 -1.602748,-1.101427 -3.927181,0.116068 -5.79828,0.646098 -2.112563,0.59843 -3.829954,2.26578 -5.956536,2.81231 -1.638078,0.42098 -3.374979,0.39882 -5.064178,0.31437 -2.058687,-0.10293 -4.287113,-0.0213 -6.102904,-0.99682 -1.772336,-0.9522 -2.770922,-2.919115 -4.099578,-4.42992 -1.479509,-1.682339 -3.135479,-3.249591 -4.309166,-5.157907 -1.140016,-1.853569 -1.998214,-3.899456 -2.583185,-5.995444 -0.847245,-3.035734 -1.048367,-6.22399 -1.296084,-9.365986 -0.514641,-6.527614 -2.636583,-13.489395 -0.389841,-19.63974 0.972141,-2.661187 2.899232,-5.55326 5.606612,-6.388166 1.339616,-0.413113 2.874649,0.321288 4.072554,1.049475 3.113103,1.892404 5.160717,5.186302 7.293517,8.139904 2.427865,3.362222 2.937831,8.214909 6.184099,10.795764 3.482484,2.768652 12.778795,3.852349 12.778795,3.852349 l 20.843674,4.158644"
       id="path5"
       sodipodi:nodetypes="cccaaaaaaaaaaaaaaaaaaacc" />
    <path
       style="fill:none;stroke:#000000;stroke-width:1.165"
       d="m 35.626763,84.32994 c 0,0 -7.914008,-13.50976 -3.917062,-18.298702 1.20943,-1.449079 4.046233,-0.803508 5.659683,0.175946 2.500666,1.518044 2.674186,5.217432 4.289587,7.656338 1.940627,2.929927 3.620509,7.891427 6.458424,8.333268 2.837915,0.44184 28.444937,0.03949 32.036913,2.284281"
       id="path6"
       sodipodi:nodetypes="caaazc" />
    <path
       style="fill:none;stroke:#000000;stroke-width:1.165"
       d="m 23.212179,36.998145 1.820502,3.965571 c -1.965005,2.576145 -1.589429,2.649349 -2.529555,3.664631"
       id="path7"
       sodipodi:nodetypes="ccc" />
    <path
       style="fill:none;stroke:#000000;stroke-width:1.165"
       d="M -8.7437564,17.46398 C -1.9032389,28.453875 3.888064,47.246055 1.5138772,67.752691 -1.346553,92.459171 -24.665566,142.87984 4.9242624,129.59524 c 10.0097816,-4.99976 -5.61136763,-25.47536 24.6672896,-1.29816 4.939811,2.76975 9.063193,4.91574 12.67632,6.46507 3.613127,1.54933 11.748878,1.27579 10.916692,5.17288 m 6.977087,-1.52338 c -1.777156,-2.84796 5.807013,-3.2974 9.114175,-5.08433 0,0 18.700967,-15.18213 19.554066,-15.86428 11.323588,-9.05447 2.30455,-19.072662 2.30455,-19.072662 -5.771032,-7.341151 -2.518101,-8.822356 1.960295,-12.906531 6.459919,-5.89127 5.819311,-11.04714 1.669235,-19.155009 -5.401514,-10.915603 -0.115513,-11.312829 -0.17327,-16.969244 -0.433358,-6.63878 -12.38479,4.068982 -11.811878,-6.943677 0.643947,-8.889954 -2.18536,-9.453855 -5.763407,-10.123056 L 56.4794,27.457661 C 44.759116,22.098286 44.462539,18.229708 44.378906,14.388919"
       id="path8"
       sodipodi:nodetypes="csccscccscscccccc" />
    <path
       style="fill:none;stroke:#000000;stroke-width:1.165"
       d="m -45.651822,107.58869 c 6.840517,10.9899 12.63182,29.78208 10.257633,50.28871 -2.86043,24.70648 -26.179443,75.12715 3.410385,61.84255 10.009782,-4.99976 20.32683,-25.65872 50.605487,-1.48152 19.759243,11.07899 26.455626,12.17798 39.684274,5.03024 0,0 18.700967,-15.18213 19.554066,-15.86428 11.32359,-9.05447 2.30455,-19.07266 2.30455,-19.07266 -5.771032,-7.34115 16.91106,-53.49409 21.389457,-57.57826 6.45991,-5.89127 16.06867,-50.26006 11.9186,-58.36793 -5.40151,-10.9156 1.5207,-29.00796 1.46294,-34.66437 -0.43335,-6.63878 -12.38479,4.06898 -11.81187,-6.94368 0.64394,-8.88995 -2.18536,-9.45386 -5.763407,-10.12306 L 76.824276,15.81923 C 65.103992,10.45986 64.807415,6.5912799 64.723782,2.7504899 M -33.880395,100.94775 c 6.193104,10.86468 23.9175946,39.44906 11.566198,81.86634 -6.953488,23.87973 15.0457521,6.84572 44.63558,-6.43888"
       id="path8-5"
       sodipodi:nodetypes="cscccscscccccccsc" />
    <path
       style="fill:none;stroke:#000000;stroke-width:1.165"
       d="m -3.7629368,142.89736 c -6.6013872,44.99967 8.9413405,13.36205 21.0266958,14.67801 10.176969,1.20604 35.797355,-19.67086 24.340554,4.72438 -7.836519,13.00347 4.491703,8.24131 4.655278,13.29476 -4.56137,11.7598 -5.302996,11.46198 0.944739,14.8477 16.575641,7.92719 3.817822,15.95323 -5.492866,9.08442 -18.927012,-9.46176 -39.7076198,-2.3712 -39.7076198,-2.3712"
       id="path9"
       sodipodi:nodetypes="ccccccc" />
    <path
       style="fill:none;stroke:#000000;stroke-width:1.165"
       d="m 11.608788,136.99637 c -5.9864546,37.72008 29.230789,-18.44997 38.72306,13.56302 3.828913,14.41541 7.483462,7.61691 13.650367,8.36474 25.131816,-3.25077 4.470906,8.1816 3.433226,13.8273 -4.56137,11.7598 -5.302996,11.46198 0.944739,14.8477 6.112604,2.91006 3.313711,7.32454 1.797505,10.54967 -22.952468,37.45633 -50.365509,6.68298 -50.365509,6.68298"
       id="path9-2"
       sodipodi:nodetypes="ccccccc" />
    <path
       style="fill:none;stroke:#000000;stroke-width:1.165"
       d="m -63.236466,109.22286 c 4.776829,-23.743369 26.524275,-26.886963 40.95152,-11.560803 6.622232,7.034843 28.0886124,-52.934157 8.437291,-47.585717 -7.887772,2.146791 -12.559255,-11.533588 -15.561813,-18.47296 -3.759027,-8.687688 -7.832427,-17.885783 -16.129488,-19.877003 -4.524187,-1.085764 -12.756033,5.666391 -12.756033,5.666391"
       id="path3"
       sodipodi:nodetypes="csssac" />
    <rect
       style="font-variation-settings:normal;opacity:1;vector-effect:none;fill:#cdde87;fill-opacity:1;stroke:#000000;stroke-width:0.839633;stroke-linecap:butt;stroke-linejoin:miter;stroke-miterlimit:4;stroke-dasharray:none;stroke-dashoffset:0;stroke-opacity:1;-inkscape-stroke:none;stop-color:#000000;stop-opacity:1"
       id="rect3"
       width="10.482236"
       height="9.4189215"
       x="-37.737167"
       y="199.49156"
       ry="2.9045753" />
    <rect
       style="font-variation-settings:normal;vector-effect:none;fill:#cdde87;fill-opacity:1;stroke:#000000;stroke-width:1.165;stroke-linecap:butt;stroke-linejoin:miter;stroke-miterlimit:4;stroke-dasharray:none;stroke-dashoffset:0;stroke-opacity:1;-inkscape-stroke:none;stop-color:#000000"
       id="rect3-2"
       width="14.54421"
       height="13.068851"
       x="-34.902664"
       y="58.99818"
       ry="4.0301285" />
    <rect
       style="fill:#cdde87;fill-opacity:1;stroke:#000000;stroke-width:0.854902"
       id="rect4"
       width="8.0856562"
       height="8.7266464"
       x="98.654938"
       y="88.473946"
       ry="2.8985152" />
  </g>
</svg>
