<?xml version="1.0" encoding="UTF-8" standalone="no"?>
<!-- Created with Inkscape (http://www.inkscape.org/) -->

<svg
   width="210mm"
   height="297mm"
   viewBox="0 0 210 297"
   version="1.1"
   id="svg1"
   inkscape:version="1.3.2 (091e20ef0f, 2023-11-25, custom)"
   sodipodi:docname="magic_level_04.svg"
   xmlns:inkscape="http://www.inkscape.org/namespaces/inkscape"
   xmlns:sodipodi="http://sodipodi.sourceforge.net/DTD/sodipodi-0.dtd"
   xmlns="http://www.w3.org/2000/svg"
   xmlns:svg="http://www.w3.org/2000/svg">
  <sodipodi:namedview
     id="namedview1"
     pagecolor="#ffffff"
     bordercolor="#000000"
     borderopacity="0.25"
     inkscape:showpageshadow="2"
     inkscape:pageopacity="0.0"
     inkscape:pagecheckerboard="0"
     inkscape:deskcolor="#d1d1d1"
     inkscape:document-units="mm"
     inkscape:zoom="3.2498317"
     inkscape:cx="394.0204"
     inkscape:cy="478.48632"
     inkscape:window-width="3840"
     inkscape:window-height="2125"
     inkscape:window-x="2560"
     inkscape:window-y="0"
     inkscape:window-maximized="1"
     inkscape:current-layer="layer1" />
  <defs
     id="defs1" />
  <g
     inkscape:label="Layer 1"
     inkscape:groupmode="layer"
     id="layer1">
    <path
       style="fill:none;fill-opacity:1;stroke:#000000;stroke-width:1.765;stroke-linecap:butt;stroke-linejoin:round;stroke-dasharray:none;stroke-opacity:1"
       d="m 134.1182,110.75071 c 2.08675,2.42895 3.13707,13.89057 3.13707,13.89057 -0.4556,5.39936 -2.24499,7.50045 -3.6269,10.60914 -5.13656,7.52093 -7.59754,7.1273 -12.15607,6.5352 l -9.79395,-1.68636 -7.22445,-0.67978 -2.62556,10.31936 c 0,0 6.61212,6.94025 7.13915,7.31459 0.51572,0.3663 14.82932,2.73041 17.94306,6.30033 1.8737,2.14821 1.89677,2.58355 2.1485,4.92474 0.52057,4.84152 0.20475,5.27164 -0.13888,5.59947 -6.74573,6.43561 -7.16493,7.75914 -4.17278,11.08273 10.99433,11.17919 0.25683,10.79117 -7.6869,11.75508 l -7.47919,0.12147 c -9.639844,-3.92069 -17.381892,-2.36559 -25.236683,0.0985 l -8.920829,-0.35407 c -7.94373,-0.96391 -18.681231,-0.57589 -7.686901,-11.75507 2.992156,-3.3236 2.572956,-4.64712 -4.172781,-11.08273 -0.343626,-0.32783 -0.659446,-0.75796 -0.138877,-5.59948 0.251729,-2.34119 0.274804,-2.77653 2.148503,-4.92474 3.113732,-3.56992 17.427339,-5.93403 17.943054,-6.30033 0.527033,-0.37433 7.139155,-7.31458 7.139155,-7.31458 l -2.625558,-10.31937 -7.224455,0.67978 -9.793952,1.68637 c -4.558532,0.59209 -7.019505,0.98572 -12.156062,-6.5352 -1.381918,-3.1087 -3.171304,-5.20979 -3.626905,-10.60915 0,0 1.050325,-11.46162 3.137075,-13.89057"
       id="use1-7"
       sodipodi:nodetypes="cccccccssssccccccssssccccccc" />
    <path
       style="font-variation-settings:normal;opacity:1;vector-effect:none;fill:none;fill-opacity:1;stroke:#000000;stroke-width:1;stroke-linecap:butt;stroke-linejoin:miter;stroke-miterlimit:4;stroke-dasharray:none;stroke-dashoffset:0;stroke-opacity:1;-inkscape-stroke:none;stop-color:#000000;stop-opacity:1"
       d="m 69.372619,20.759344 c 0,0 -24.171128,-0.03656 -42.778748,-2.6218 C 4.7133655,15.097591 4.9994355,18.799929 4.8177755,2.6890626"
       id="path3"
       sodipodi:nodetypes="csc" />
    <rect
       style="font-variation-settings:normal;opacity:1;fill:#88aa00;fill-opacity:1;stroke:#000000;stroke-width:2.279;stroke-linecap:butt;stroke-linejoin:miter;stroke-miterlimit:4;stroke-dasharray:none;stroke-dashoffset:0;stroke-opacity:1"
       id="rect3"
       width="24.427031"
       height="39.304829"
       x="130.06641"
       y="-229.07312"
       ry="4.2044163"
       transform="rotate(136.21675)"
       inkscape:transform-center-x="0.58784461"
       inkscape:transform-center-y="-0.8659169" />
    <path
       id="path4"
       style="opacity:1;vector-effect:none;fill:#aa2000;stroke:#000000;stroke-width:0.680427"
       transform="matrix(0.37707467,0.92618286,-0.88359569,0.46825064,0,0)"
       d="m 156.70435,-28.318572 c -4.68207,8e-6 -8.47764,-5.606556 -8.47764,-12.522595 0,-6.916039 3.79557,-12.522604 8.47764,-12.522596 2.34103,4e-6 3.94669,1.425289 2.82286,3.270504 -7.4866,12.292193 1.93477,21.774679 -2.82286,21.774687 z"
       sodipodi:nodetypes="sssss" />
    <g
       id="g8">
      <rect
         style="font-variation-settings:normal;fill:#88aa00;fill-opacity:1;stroke:#000000;stroke-width:1.03092;stroke-linecap:butt;stroke-linejoin:miter;stroke-miterlimit:4;stroke-dasharray:none;stroke-dashoffset:0;stroke-opacity:1"
         id="rect3-2"
         width="11.000611"
         height="17.859192"
         x="-2.6613598"
         y="-141.75191"
         ry="1.9103882"
         transform="matrix(-0.64463198,0.76449304,-0.61233751,-0.79059647,0,0)"
         inkscape:transform-center-x="0.23637391"
         inkscape:transform-center-y="-0.43085425" />
      <ellipse
         style="font-variation-settings:normal;opacity:1;fill:#aa2000;fill-opacity:1;stroke:#000000;stroke-width:2.279;stroke-linecap:butt;stroke-linejoin:miter;stroke-miterlimit:4;stroke-dasharray:none;stroke-dashoffset:0;stroke-opacity:1"
         id="path8"
         cx="132.49242"
         cy="22.470121"
         rx="3.5493453"
         ry="1.6825728"
         transform="rotate(43.830616)" />
    </g>
    <g
       id="g9">
      <rect
         style="font-variation-settings:normal;fill:#88aa00;fill-opacity:1;stroke:#000000;stroke-width:1.03092;stroke-linecap:butt;stroke-linejoin:miter;stroke-miterlimit:4;stroke-dasharray:none;stroke-dashoffset:0;stroke-opacity:1"
         id="rect3-2-6"
         width="11.000611"
         height="17.859192"
         x="155.63138"
         y="13.070307"
         ry="1.9103882"
         transform="matrix(0.64463198,0.76449304,0.61233751,-0.79059647,0,0)"
         inkscape:transform-center-x="-0.23637096"
         inkscape:transform-center-y="-0.43085964" />
      <ellipse
         style="font-variation-settings:normal;opacity:1;fill:#aa2000;fill-opacity:1;stroke:#000000;stroke-width:2.279;stroke-linecap:butt;stroke-linejoin:miter;stroke-miterlimit:4;stroke-dasharray:none;stroke-dashoffset:0;stroke-opacity:1"
         id="ellipse8"
         cx="5.4028349"
         cy="157.8679"
         rx="3.5493453"
         ry="1.6825728"
         transform="rotate(-45.916946)" />
    </g>
    <rect
       style="font-variation-settings:normal;opacity:1;fill:#88aa00;fill-opacity:1;stroke:#000000;stroke-width:2.279;stroke-linecap:butt;stroke-linejoin:miter;stroke-miterlimit:4;stroke-dasharray:none;stroke-dashoffset:0;stroke-opacity:1"
       id="rect9"
       width="24.427031"
       height="39.304829"
       x="98.571541"
       y="-254.72845"
       ry="4.2044163"
       transform="rotate(136.21675)"
       inkscape:transform-center-x="0.58784461"
       inkscape:transform-center-y="-0.8659169" />
    <rect
       style="font-variation-settings:normal;opacity:1;fill:#88aa00;fill-opacity:1;stroke:#000000;stroke-width:2.279;stroke-linecap:butt;stroke-linejoin:miter;stroke-miterlimit:4;stroke-dasharray:none;stroke-dashoffset:0;stroke-opacity:1"
       id="rect10"
       width="24.427031"
       height="39.304829"
       x="67.040901"
       y="-285.02286"
       ry="4.2044163"
       transform="rotate(136.21675)"
       inkscape:transform-center-x="0.58784461"
       inkscape:transform-center-y="-0.8659169" />
    <rect
       style="font-variation-settings:normal;opacity:1;fill:#88aa00;fill-opacity:1;stroke:#000000;stroke-width:2.279;stroke-linecap:butt;stroke-linejoin:miter;stroke-miterlimit:4;stroke-dasharray:none;stroke-dashoffset:0;stroke-opacity:1"
       id="rect11"
       width="24.427031"
       height="39.304829"
       x="35.65728"
       y="-314.14099"
       ry="4.2044163"
       transform="rotate(136.21675)"
       inkscape:transform-center-x="0.58784461"
       inkscape:transform-center-y="-0.8659169" />
    <path
       style="font-variation-settings:normal;opacity:1;fill:none;fill-opacity:1;stroke:#000000;stroke-width:2.279;stroke-linecap:butt;stroke-linejoin:miter;stroke-miterlimit:4;stroke-dasharray:none;stroke-dashoffset:0;stroke-opacity:1"
       d="M 47.342426,102.60186 90.356244,84.68447 145.10832,95.365484"
       id="path11"
       sodipodi:nodetypes="ccc" />
    <path
       style="font-variation-settings:normal;opacity:1;vector-effect:none;fill:none;fill-opacity:1;stroke:#000000;stroke-width:1;stroke-linecap:butt;stroke-linejoin:miter;stroke-miterlimit:4;stroke-dasharray:none;stroke-dashoffset:0;stroke-opacity:1;-inkscape-stroke:none;stop-color:#000000;stop-opacity:1"
       d="m 63.905206,28.315613 c 0,0 24.14826,1.051807 42.853424,-0.692976 21.99519,-2.051675 21.54271,1.634027 22.44959,-14.45232"
       id="path12"
       sodipodi:nodetypes="csc" />
    <path
       style="font-variation-settings:normal;opacity:1;vector-effect:none;fill:none;fill-opacity:1;stroke:#000000;stroke-width:1;stroke-linecap:butt;stroke-linejoin:miter;stroke-miterlimit:4;stroke-dasharray:none;stroke-dashoffset:0;stroke-opacity:1;-inkscape-stroke:none;stop-color:#000000;stop-opacity:1"
       d="m 75.682996,41.427519 c 0,0 -24.171128,-0.03656 -42.778748,-2.6218 C 11.023743,35.765766 11.309813,39.468104 11.128153,23.357238"
       id="path13"
       sodipodi:nodetypes="csc" />
    <path
       style="font-variation-settings:normal;opacity:1;vector-effect:none;fill:none;fill-opacity:1;stroke:#000000;stroke-width:1;stroke-linecap:butt;stroke-linejoin:miter;stroke-miterlimit:4;stroke-dasharray:none;stroke-dashoffset:0;stroke-opacity:1;-inkscape-stroke:none;stop-color:#000000;stop-opacity:1"
       d="m 69.799984,48.176228 c 0,0 24.14826,1.051807 42.853426,-0.692976 21.99519,-2.051675 21.54271,1.634027 22.44959,-14.45232"
       id="path14"
       sodipodi:nodetypes="csc" />
    <path
       style="fill:none;stroke-width:3.46500005;stroke:#d68d8d;stroke-opacity:1;stroke-dasharray:none"
       d="M 27.630096,69.588088 C 132.14547,67.390427 132.14547,67.390427 132.14547,67.390427"
       id="path1" />
  </g>
</svg>
